<svg width="349" height="389" viewBox="0 0 349 389" fill="none" xmlns="http://www.w3.org/2000/svg">
<path d="M174.577 186.872C165.546 186.872 158.218 195.032 158.218 205.106C158.995 259.999 152.669 312.917 139.336 365.835C137.475 373.22 140.802 389 155.096 389C162.24 389 168.804 383.742 170.835 375.689C180.058 339.289 191.994 280.407 190.93 205.106C190.937 195.039 183.616 186.872 174.577 186.872ZM173.991 124.776C132.233 124.723 103.093 160.538 103.672 201.581C104.184 238.004 101.116 274.45 94.5587 309.886C92.7251 319.747 98.4236 329.404 107.265 331.433C116.16 333.461 124.763 327.132 126.596 317.271C133.644 279.214 136.937 240.094 136.391 201.011C136.112 181.295 149.97 161.131 173.507 161.245C194.85 161.602 212.463 180.498 212.784 203.389C213.309 239.896 210.868 276.577 205.552 312.454C204.072 322.376 210.112 331.767 219.021 333.408C232.633 335.938 237.296 321.935 237.821 318.387C243.465 280.376 246.041 241.492 245.503 202.819C244.903 160.425 212.825 125.414 173.991 124.776ZM98.5395 109.748C91.5186 103.412 81.2461 104.582 75.5271 112.392C58.0632 136.325 48.6769 166.548 49.1132 197.486C49.5154 226.038 47.4295 254.673 42.9034 282.618C41.3083 292.533 47.2046 302.014 56.1001 303.807C69.808 306.467 74.5523 292.555 75.1113 289.098C80.0123 258.829 82.2686 227.816 81.8323 196.916C81.5119 174.214 88.1035 152.941 100.918 135.398C106.61 127.587 105.547 116.107 98.5395 109.748ZM173.16 62.3919C162.655 62.0804 152.117 63.486 141.954 66.1679C133.167 68.4928 127.728 78.309 129.8 88.1176C131.886 97.911 140.706 103.944 149.493 101.664C157.025 99.6812 164.809 98.7999 172.669 98.8607C224.086 99.7192 266.552 145.586 267.336 201.11C267.738 229.89 266.464 258.936 263.533 287.442C262.51 297.448 268.952 306.497 277.922 307.637C289.319 309.118 295.311 298.611 296.04 291.598C299.138 261.374 300.479 230.957 300.055 200.54C298.992 125.513 242.067 63.5316 173.16 62.3919ZM344.983 154.665C343.033 144.849 334.41 138.558 325.481 140.785C316.66 142.957 311.084 152.682 313.034 162.521C316.244 178.788 316.381 190.944 316.238 209.323C316.163 219.405 323.429 227.626 332.461 227.709H332.597C341.575 227.709 348.882 219.648 348.957 209.627C349.079 192.775 349.229 176.114 344.983 154.665ZM317.635 85.7395C284.439 33.0194 230.118 0.980048 172.321 0.0151452C124.749 -0.623058 80.7485 18.9257 48.0226 55.4173C16.4145 90.6932 -0.619891 137.548 0.0890233 187.396L0.0072255 203.708C-0.258617 213.775 6.84416 222.178 15.876 222.467C16.0328 222.482 16.2032 222.482 16.3668 222.482C25.1737 222.482 32.4469 214.657 32.7059 204.78L32.815 186.819C32.2492 146.931 45.8754 109.429 71.1782 81.2113C97.5989 51.7324 133.44 35.8761 171.844 36.4915C219.185 37.2741 263.683 63.5088 290.873 106.686C296.061 114.937 306.251 116.905 313.654 111.138C321.043 105.349 322.829 93.9754 317.635 85.7395Z" fill="#2395FF"/>
</svg>
